<svg
  viewBox="0 0 1024 1024"
  version="1.1"
  xmlns="http://www.w3.org/2000/svg">
  <path
    d="M116.4921875 183.18469238m32.13500977 1e-8l726.74560546 0q32.13500977 0 32.13500977 32.13500976l0 0q0 32.13500977-32.13500977 32.13500977l-726.74560546 0q-32.13500977 0-32.13500977-32.13500977l0 0q0-32.13500977 32.13500977-32.13500976Z"
    fill="#000000"></path>
  <path
    d="M116.4921875 479.81555175m32.13500977 0l133.48388671 0q32.13500977 0 32.13500977 32.13500977l0 0q0 32.13500977-32.13500977 32.13500976l-133.48388671 0q-32.13500977 0-32.13500977-32.13500976l0 0q0-32.13500977 32.13500977-32.13500977Z"
    fill="#000000"></path>
  <path
    d="M413.12304687 479.81555175m32.13500977 0l133.48388672 0q32.13500977 0 32.13500977 32.13500977l0 0q0 32.13500977-32.13500977 32.13500976l-133.48388672 0q-32.13500977 0-32.13500977-32.13500976l0 0q0-32.13500977 32.13500977-32.13500977Z"
    fill="#000000"></path>
  <path
    d="M709.75390625 479.81555175m32.13500977 0l133.48388671 0q32.13500977 0 32.13500977 32.13500977l0 0q0 32.13500977-32.13500977 32.13500976l-133.48388671 0q-32.13500977 0-32.13500977-32.13500976l0 0q0-32.13500977 32.13500977-32.13500977Z"
    fill="#000000"></path>
  <path
    d="M116.4921875 776.44641114m32.13500977-1e-8l726.74560546 0q32.13500977 0 32.13500977 32.13500976l0 0q0 32.13500977-32.13500977 32.13500977l-726.74560546 0q-32.13500977 0-32.13500977-32.13500977l0 0q0-32.13500977 32.13500977-32.13500976Z"
    fill="#000000"></path>
</svg>
