<svg
  viewBox="0 0 1024 1024"
  version="1.1"
  xmlns="http://www.w3.org/2000/svg">
  <path
    d="M341.333333 853.333333a170.666667 170.666667 0 0 1-165.333333-128H85.333333v-85.333333h90.709334A170.666667 170.666667 0 1 1 341.333333 853.333333z m0-256a85.333333 85.333333 0 1 0 85.333334 89.173334V682.666667a85.333333 85.333333 0 0 0-85.333334-85.333334z m597.333334 128h-384v-85.333333h384v85.333333z m-384-213.333333a170.666667 170.666667 0 0 1-165.290667-128H85.333333V298.666667h304.042667A170.666667 170.666667 0 1 1 554.666667 512z m0-256a85.333333 85.333333 0 1 0 85.333333 89.173333V341.333333a85.333333 85.333333 0 0 0-85.333333-85.333333z m384 128h-170.666667V298.666667h170.666667v85.333333z"></path>
</svg>
