<svg
  viewBox="0 0 1024 1024"
  version="1.1"
  xmlns="http://www.w3.org/2000/svg">
  <path
    d="M170.666667 170.666667h42.666666v42.666666H170.666667z m85.333333 0h42.666667v42.666666H256z m85.333333 0h42.666667v42.666666H341.333333z m362.666667 682.666666c-11.946667 0-21.333333-9.386667-21.333333-21.333333s9.386667-21.333333 21.333333-21.333333h85.333333c11.946667 0 21.333333 9.386667 21.333334 21.333333s-9.386667 21.333333-21.333334 21.333333z m-42.666667-768A106.666667 106.666667 0 0 1 768 192V256h64A106.666667 106.666667 0 0 1 938.666667 362.666667v469.333333a106.666667 106.666667 0 0 1-106.666667 106.666667h-170.666667a106.666667 106.666667 0 0 1-106.666666-106.666667V810.666667H192A106.666667 106.666667 0 0 1 85.333333 704v-512A106.666667 106.666667 0 0 1 192 85.333333zM725.333333 192c0-35.413333-28.586667-64-64-64h-469.333333C156.586667 128 128 156.586667 128 192V256h597.333333zM661.333333 896h170.666667c35.413333 0 64-28.586667 64-64v-469.333333c0-35.413333-28.586667-64-64-64h-170.666667c-35.413333 0-64 28.586667-64 64v469.333333c0 35.413333 28.586667 64 64 64zM128 298.666667v405.333333c0 35.413333 28.586667 64 64 64H554.666667V362.666667c0-23.893333 8.106667-46.08 21.333333-64z"
    fill="#000000"></path>
</svg>
