<svg
  viewBox="0 0 1024 1024"
  version="1.1"
  xmlns="http://www.w3.org/2000/svg">
    <path d="M787.692308 236.307692a78.769231 78.769231 0 0 1 78.76923 78.769231v393.846154a78.769231 78.769231 0 0 1-78.76923 78.769231H236.307692a78.769231 78.769231 0 0 1-78.76923-78.769231V315.076923a78.769231 78.769231 0 0 1 78.76923-78.769231h551.384616z m0 39.384616H236.307692a39.384615 39.384615 0 0 0-39.108923 34.776615L196.923077 315.076923v393.846154a39.384615 39.384615 0 0 0 34.776615 39.108923L236.307692 748.307692h551.384616a39.384615 39.384615 0 0 0 39.108923-34.776615L827.076923 708.923077V315.076923a39.384615 39.384615 0 0 0-34.776615-39.108923L787.692308 275.692308zM349.814154 422.045538c16.777846 0 30.011077 4.017231 39.463384 12.051693 8.743385 7.561846 13.233231 17.723077 13.233231 30.483692 0 9.452308-2.363077 17.486769-6.852923 24.103385-4.489846 6.144-10.870154 10.633846-19.377231 13.942154 11.106462 2.126769 19.377231 6.616615 25.048616 13.469538 5.435077 6.616615 8.270769 15.832615 8.270769 27.175385 0 17.014154-5.907692 29.538462-17.486769 37.572923-9.924923 6.616615-24.103385 9.924923-42.062769 9.924923H272.541538v-168.723693z m211.022769 0v23.63077h-55.296V590.769231h-27.648v-145.092923H422.596923v-23.63077h138.24z m47.734154 0l83.416615 121.698462h0.945231v-121.698462h27.884308V590.769231h-26.939077l-84.361846-123.352616h-0.945231V590.769231h-27.648v-168.723693h27.648z m-261.828923 93.577847H300.189538v52.460307h45.843693c10.397538 0 18.668308-1.654154 24.576-4.962461 7.561846-4.253538 11.342769-10.870154 11.342769-20.322462 0-9.688615-2.835692-16.541538-8.270769-20.795077-5.671385-4.253538-14.651077-6.380308-26.939077-6.380307z m-3.780923-70.892308H300.189538v48.206769h42.299077c11.815385 0 20.086154-2.126769 25.048616-5.907692 4.726154-4.017231 7.325538-10.397538 7.325538-19.140923 0-8.034462-2.599385-13.942154-7.325538-17.486769-5.198769-3.780923-13.233231-5.671385-24.576-5.671385z" fill="#333333"></path>
</svg>