<svg
  viewBox="0 0 1024 1024"
  version="1.1"
  xmlns="http://www.w3.org/2000/svg">
  <path
    d="M351.412706 220.882824a120.470588 120.470588 0 0 1 120.470588 120.470588V662.588235a120.470588 120.470588 0 0 1-120.470588 120.470589h-40.176941a120.470588 120.470588 0 0 1-120.470589-120.470589V341.353412a120.470588 120.470588 0 0 1 120.470589-120.470588h40.176941z m40.176941 120.470588A40.176941 40.176941 0 0 0 351.412706 301.176471h-40.176941a40.176941 40.176941 0 0 0-40.116706 40.176941V662.588235c0 22.166588 17.950118 40.116706 40.116706 40.116706h40.176941A40.176941 40.176941 0 0 0 391.589647 662.588235V341.353412zM712.824471 220.882824a120.470588 120.470588 0 0 1 120.470588 120.470588V662.588235a120.470588 120.470588 0 0 1-120.470588 120.470589h-40.176942a120.470588 120.470588 0 0 1-120.470588-120.470589V341.353412a120.470588 120.470588 0 0 1 120.470588-120.470588h40.176942z m40.176941 120.470588A40.176941 40.176941 0 0 0 712.824471 301.176471h-40.176942a40.176941 40.176941 0 0 0-40.116705 40.176941V662.588235c0 22.166588 17.950118 40.116706 40.116705 40.116706h40.176942a40.176941 40.176941 0 0 0 40.176941-40.116706V341.353412zM288.707765 488.508235v-27.949176l44.995764-25.47953h22.648471v147.154824h-29.515294v-115.049412l-38.128941 21.323294zM684.935529 556.815059h58.849883v25.479529h-101.436236v-18.853647l44.393412-49.814588a157.214118 157.214118 0 0 0 15.841883-20.058353 28.551529 28.551529 0 0 0 4.638117-15.299765 19.636706 19.636706 0 0 0-4.818823-13.854117 16.865882 16.865882 0 0 0-13.071059-5.180236 20.720941 20.720941 0 0 0-14.817882 6.204236 38.430118 38.430118 0 0 0-9.878589 17.287529l-22.889411-13.251765a48.368941 48.368941 0 0 1 18.913882-27.346823 53.308235 53.308235 0 0 1 31.503059-9.637647c9.336471 0 17.468235 1.927529 24.274823 5.842823a38.068706 38.068706 0 0 1 15.902118 15.661177 46.019765 46.019765 0 0 1 5.601882 22.889412c0 8.432941-2.048 16.323765-6.204235 23.67247-4.035765 7.228235-11.264 16.685176-21.684706 28.310588l-25.118118 27.949177zM953.765647 501.940706l-80.293647 80.353882V421.647059l80.293647 80.293647zM70.234353 501.940706l80.293647 80.353882V421.647059L70.234353 501.940706z"></path>
</svg>
